<?xml version="1.0" encoding="utf-8"?>
<svg version="1.1" xmlns:xlink="http://www.w3.org/1999/xlink" width="12px" height="12px" viewBox="660 294.5  12 12" xmlns="http://www.w3.org/2000/svg">
  <path d="M 666 294.5  C 669.36 294.5  672 297.14  672 300.5  C 672 303.86  669.36 306.5  666 306.5  C 662.64 306.5  660 303.86  660 300.5  C 660 297.14  662.64 294.5  666 294.5  Z " fill-rule="nonzero" fill="#ffffff" stroke="none" />
  <path d="M 666 295  C 669.08 295  671.5 297.42  671.5 300.5  C 671.5 303.58  669.08 306  666 306  C 662.92 306  660.5 303.58  660.5 300.5  C 660.5 297.42  662.92 295  666 295  Z " stroke-width="1" stroke="#797979" fill="none" />
  <path d="M 666 303.5  C 664.32 303.5  663 302.18  663 300.5  C 663 298.82  664.32 297.5  666 297.5  C 667.68 297.5  669 298.82  669 300.5  C 669 302.18  667.68 303.5  666 303.5  " fill-rule="nonzero" fill="#797979" stroke="none" />
</svg>