<?xml version="1.0" encoding="utf-8"?>
<svg version="1.1" xmlns:xlink="http://www.w3.org/1999/xlink" width="12px" height="12px" viewBox="710 294  12 12" xmlns="http://www.w3.org/2000/svg">
  <path d="M 716 294  C 719.36 294  722 296.64  722 300  C 722 303.36  719.36 306  716 306  C 712.64 306  710 303.36  710 300  C 710 296.64  712.64 294  716 294  Z " fill-rule="nonzero" fill="#ffffff" stroke="none" />
  <path d="M 716 294.5  C 719.08 294.5  721.5 296.92  721.5 300  C 721.5 303.08  719.08 305.5  716 305.5  C 712.92 305.5  710.5 303.08  710.5 300  C 710.5 296.92  712.92 294.5  716 294.5  Z " stroke-width="1" stroke="#797979" fill="none" />
  <path d="M 716 303  C 714.32 303  713 301.68  713 300  C 713 298.32  714.32 297  716 297  C 717.68 297  719 298.32  719 300  C 719 301.68  717.68 303  716 303  " fill-rule="nonzero" fill="#797979" stroke="none" />
</svg>