<?xml version="1.0" encoding="utf-8"?>
<svg version="1.1" xmlns:xlink="http://www.w3.org/1999/xlink" width="86px" height="28px" xmlns="http://www.w3.org/2000/svg">
  <defs>
    <mask fill="white" id="clip3">
      <path d="M 0 23  L 0 5  C 0 2.19999999999999  1.45538461538461 0  3.30769230769231 0  L 40.0230769230769 0  L 82.6923076923077 0  C 84.5446153846154 0  86 2.19999999999999  86 5  L 86 23  C 86 25.8  84.5446153846154 28  82.6923076923077 28  L 3.30769230769231 28  C 1.45538461538461 28  0 25.8  0 23  Z " fill-rule="evenodd" />
    </mask>
  </defs>
  <g transform="matrix(1 0 0 1 -388 -186 )">
    <path d="M 0 23  L 0 5  C 0 2.19999999999999  1.45538461538461 0  3.30769230769231 0  L 40.0230769230769 0  L 82.6923076923077 0  C 84.5446153846154 0  86 2.19999999999999  86 5  L 86 23  C 86 25.8  84.5446153846154 28  82.6923076923077 28  L 3.30769230769231 28  C 1.45538461538461 28  0 25.8  0 23  Z " fill-rule="nonzero" fill="#ffffff" stroke="none" transform="matrix(1 0 0 1 388 186 )" />
    <path d="M 0 23  L 0 5  C 0 2.19999999999999  1.45538461538461 0  3.30769230769231 0  L 40.0230769230769 0  L 82.6923076923077 0  C 84.5446153846154 0  86 2.19999999999999  86 5  L 86 23  C 86 25.8  84.5446153846154 28  82.6923076923077 28  L 3.30769230769231 28  C 1.45538461538461 28  0 25.8  0 23  Z " stroke-width="2" stroke="#797979" fill="none" transform="matrix(1 0 0 1 388 186 )" mask="url(#clip3)" />
  </g>
</svg>